<svg version="1.0" xmlns="http://www.w3.org/2000/svg" width="500.000000ptpx" height="500.000000ptpx" viewBox="0 0 500.000000 500.000000" preserveAspectRatio="xMidYMid meet" transform="rotate(0) scale(1, 1)">

<g transform="translate(0.000000,500.000000) scale(0.100000,-0.100000)" fill="#005eb8" stroke="none">
<path d="M2265 4820 c-777 -77 -1465 -566 -1823 -1295 -164 -334 -234 -642&#10;-234 -1020 0 -441 96 -810 305 -1180 265 -470 720 -861 1202 -1034 373 -134&#10;693 -173 1070 -130 388 45 791 225 1126 503 124 103 289 273 365 376 68 91&#10;144 200 144 204 0 2 19 34 41 72 48 79 125 238 167 344 155 394 193 894 101&#10;1325 -54 255 -201 609 -331 796 -187 269 -296 391 -495 550 -315 251 -685 411&#10;-1098 474 -123 19 -418 27 -540 15z m1076 -521 c70 -42 183 -152 256 -249 22&#10;-30 63 -100 91 -155 99 -198 146 -386 162 -650 22 -355 32 -448 54 -533 13&#10;-48 38 -141 56 -207 28 -102 32 -137 33 -235 0 -63 -5 -137 -12 -163 -36 -148&#10;-143 -263 -265 -286 -78 -14 -86 -9 -86 63 0 105 -37 202 -104 274 -73 78&#10;-197 129 -292 119 l-53 -5 20 31 c14 24 19 50 19 107 -1 106 -21 147 -129 250&#10;-106 102 -117 127 -107 265 8 127 10 139 19 146 4 3 9 21 10 40 1 19 8 40 15&#10;47 17 19 15 30 -8 42 -21 11 -24 8 -20 -24 1 -13 -2 -16 -12 -10 -11 6 -11 5&#10;0 -9 8 -9 12 -24 9 -34 -3 -15 -6 -14 -15 7 -8 19 -11 21 -11 7 -1 -10 -5 -16&#10;-10 -12 -22 13 -71 -172 -71 -265 0 -96 25 -147 116 -240 95 -96 120 -143 111&#10;-216 -9 -87 -79 -146 -203 -171 -74 -15 -88 -16 -176 -1 -115 19 -235 72 -269&#10;119 -24 34 -27 63 -15 122 11 50 -12 50 -53 0 -55 -66 -50 -139 12 -210 l31&#10;-36 -29 7 c-250 51 -409 27 -540 -82 -72 -60 -121 -159 -132 -270 l-6 -62 -36&#10;6 c-75 12 -168 44 -226 79 -131 77 -237 243 -277 430 -51 241 -5 639 98 847&#10;68 139 80 221 59 400 -8 71 -15 154 -15 183 0 91 27 205 69 290 36 72 46 84&#10;105 123 106 70 187 92 330 92 116 0 126 -2 236 -41 344 -123 394 -133 615&#10;-126 128 3 162 8 233 31 132 43 268 136 287 196 9 29 37 21 126 -31z m-321&#10;-1114 c7 -9 8 -15 2 -15 -5 0 -12 7 -16 15 -3 8 -4 15 -2 15 2 0 9 -7 16 -15z&#10;m-2127 -219 c43 -18 84 -61 115 -121 35 -69 39 -167 13 -310 -47 -255 -61&#10;-336 -63 -374 l-3 -41 -45 0 c-57 0 -136 36 -182 84 -68 70 -128 209 -143 332&#10;-8 65 8 186 35 257 24 63 99 153 145 173 39 17 88 17 128 0z m3144 -18 c73&#10;-80 110 -279 84 -453 -9 -58 -7 -60 -60 99 -46 135 -60 197 -70 302 -6 65 -5&#10;74 9 74 9 0 26 -10 37 -22z m-2002 -1048 c3 -5 15 -10 26 -10 10 0 59 -20 107&#10;-45 151 -77 337 -114 573 -115 220 0 386 34 503 105 32 19 62 32 67 29 17 -10&#10;30 -87 24 -138 -10 -74 -32 -132 -76 -202 -73 -115 -168 -181 -326 -226 -62&#10;-18 -103 -22 -198 -22 -130 0 -188 12 -323 64 -216 83 -396 276 -417 445 -10&#10;75 17 152 40 115z m-910 -748 c114 -135 360 -321 549 -418 422 -215 782 -283&#10;1187 -224 229 34 400 88 606 194 59 30 110 53 112 50 3 -3 -7 -29 -22 -57&#10;-140 -268 -524 -447 -958 -447 -215 0 -470 44 -679 117 -138 48 -366 164 -467&#10;237 -217 155 -372 355 -401 515 -7 40 -6 53 7 65 8 9 18 16 21 15 3 0 23 -21&#10;45 -47z"/>
<path d="M3265 3643 c-71 -11 -119 -84 -95 -144 14 -33 22 -35 135 -44 168&#10;-13 294 -61 355 -136 35 -45 63 -49 85 -15 29 45 -7 120 -106 219 -96 96 -234&#10;140 -374 120z"/>
<path d="M2099 3629 c-144 -21 -245 -76 -357 -193 -69 -73 -89 -114 -71 -147&#10;18 -34 47 -28 121 22 124 84 226 115 440 134 86 8 113 28 113 83 0 52 -31 86&#10;-90 101 -49 12 -74 12 -156 0z"/>
<path d="M3070 3241 c0 -7 -4 -10 -8 -7 -4 2 -9 -5 -9 -16 -2 -21 -2 -21 14 1&#10;8 12 12 25 9 28 -3 4 -6 1 -6 -6z"/>
<path d="M2027 3169 c-96 -15 -201 -105 -233 -201 -61 -184 103 -375 256 -296&#10;117 60 148 248 56 347 l-31 33 45 -7 c88 -14 137 -61 166 -162 8 -29 18 -53&#10;22 -53 24 1 36 24 40 79 4 51 0 70 -22 115 -56 114 -164 166 -299 145z"/>
<path d="M3267 3166 c-67 -24 -131 -84 -163 -151 -29 -61 -33 -159 -8 -208 69&#10;-137 211 -156 285 -38 24 38 29 55 29 111 0 77 -21 124 -71 159 l-34 24 56 -6&#10;c87 -8 130 -37 165 -112 13 -27 24 -66 24 -86 0 -73 54 -53 65 24 17 113 -56&#10;235 -168 282 -44 18 -129 19 -180 1z"/>
<path d="M783 2823 c-43 -8 -92 -90 -65 -107 5 -3 25 0 44 6 31 9 41 8 72 -11&#10;20 -13 36 -25 36 -27 0 -2 -14 -23 -31 -47 -67 -92 -84 -185 -47 -256 49 -95&#10;114 -106 90 -16 -17 65 -14 124 9 174 15 34 22 42 31 33 7 -7 21 -12 31 -12&#10;48 0 -12 199 -73 242 -29 20 -65 28 -97 21z"/>
<path d="M2920 1614 c-80 -26 -173 -34 -252 -24 -180 25 -178 25 -178 2 0 -49&#10;100 -84 240 -83 158 0 276 42 268 94 -4 27 -21 29 -78 11z"/>
</g>
</svg>